<?xml version="1.0" encoding="UTF-8" standalone="no"?>
<svg
   xml:space="preserve"
   width="655.359"
   height="655.359"
   style="shape-rendering:geometricPrecision;text-rendering:geometricPrecision;image-rendering:optimizeQuality;fill-rule:evenodd;clip-rule:evenodd"
   viewBox="0 0 6.827 6.827"
   version="1.1"
   id="svg4"
   sodipodi:docname="favicon.svg"
   inkscape:version="1.4.2 (ebf0e940d0, 2025-05-08)"
   xmlns:inkscape="http://www.inkscape.org/namespaces/inkscape"
   xmlns:sodipodi="http://sodipodi.sourceforge.net/DTD/sodipodi-0.dtd"
   xmlns="http://www.w3.org/2000/svg"
   xmlns:svg="http://www.w3.org/2000/svg"><sodipodi:namedview
     id="namedview4"
     pagecolor="#ffffff"
     bordercolor="#666666"
     borderopacity="1.0"
     inkscape:showpageshadow="2"
     inkscape:pageopacity="0.0"
     inkscape:pagecheckerboard="0"
     inkscape:deskcolor="#d1d1d1"
     inkscape:zoom="1.3326314"
     inkscape:cx="328.29783"
     inkscape:cy="327.54744"
     inkscape:window-width="1920"
     inkscape:window-height="1011"
     inkscape:window-x="1920"
     inkscape:window-y="32"
     inkscape:window-maximized="1"
     inkscape:current-layer="svg4" /><defs
     id="defs1"><style
       id="style1">.fil1{fill:none}.fil2{fill:#fffffe;fill-rule:nonzero}</style></defs><circle
     style="opacity:1;fill:#424242;fill-opacity:1;stroke:none;stroke-width:0.112506;stroke-linecap:square;stroke-linejoin:round;stroke-dasharray:none;paint-order:markers stroke fill"
     id="path8"
     cx="3.4135001"
     cy="3.4135001"
     r="3.3730392" /><g
     id="g1"
     transform="matrix(1.2686184,0,0,1.2686184,-0.82733458,-0.95272466)"
     style="stroke-width:0.788259"><g
       id="g6"
       transform="matrix(1.0986598,0,0,1.0997521,-0.51170485,-0.60006476)"
       style="fill:#fff6d5;stroke-width:0.717119"><path
         id="path14"
         style="fill:#fff6d5;fill-opacity:1;fill-rule:nonzero;stroke:none;stroke-width:0.000996052"
         d="M 1.6613764,3.2440605 2.397277,3.467562 2.3959814,5.0776201 1.6613764,4.8562371 V 3.2440605" /><path
         id="path16"
         style="fill:#fff6d5;fill-opacity:1;fill-rule:nonzero;stroke:none;stroke-width:0.000996052"
         d="m 2.4272344,2.8531215 c 0.084412,0.2041469 -0.027439,0.3696354 -0.2498331,0.3696354 -0.2223851,0 -0.4710916,-0.1654885 -0.5555043,-0.3696354 -0.084404,-0.20413 0.027447,-0.3696185 0.2498318,-0.3696185 0.2223944,0 0.4710926,0.1654885 0.5555056,0.3696185" /></g><g
       id="g5"
       transform="matrix(1.0986598,0,0,1.0997521,-0.50950685,-0.60006476)"
       style="fill:#fff6d5;stroke-width:0.717119"><path
         id="path18"
         style="fill:#fff6d5;fill-opacity:1;fill-rule:nonzero;stroke:none;stroke-width:0.000996052"
         d="m 3.3335688,3.2440605 -0.7359029,0.2235015 0.0013,1.6100581 0.7346073,-0.221383 V 3.2440605" /><path
         id="path20"
         style="fill:#fff6d5;fill-opacity:1;fill-rule:nonzero;stroke:none;stroke-width:0.000996052"
         d="m 2.562948,2.8531215 c -0.084408,0.2041469 0.027443,0.3696354 0.2498311,0.3696354 0.2223871,0 0.4710905,-0.1654885 0.5555118,-0.3696354 0.084401,-0.20413 -0.027446,-0.3696185 -0.2498332,-0.3696185 -0.2223975,0 -0.4711009,0.1654885 -0.5555097,0.3696185" /></g><g
       id="g4"
       transform="matrix(1.0986598,0,0,1.0997521,-0.48878972,-0.60006476)"
       style="fill:#fff6d5;stroke-width:0.717119"><path
         id="path22"
         style="fill:#fff6d5;fill-opacity:1;fill-rule:nonzero;stroke:none;stroke-width:0.000996052"
         d="M 3.5218558,3.2440605 4.2577566,3.467562 4.256461,5.0776201 3.5218558,4.8562371 V 3.2440605" /><path
         id="path24"
         style="fill:#fff6d5;fill-opacity:1;fill-rule:nonzero;stroke:none;stroke-width:0.000996052"
         d="M 4.2924786,2.8531215 C 4.3768999,3.0572684 4.265043,3.2227569 4.0426559,3.2227569 3.820248,3.2227569 3.571555,3.0572684 3.487144,2.8531215 3.4027331,2.6489915 3.51459,2.483503 3.7369668,2.483503 c 0.2223975,0 0.4710905,0.1654885 0.5555118,0.3696185" /></g><path
       id="path26"
       style="fill:#fff6d5;fill-opacity:1;fill-rule:nonzero;stroke:none;stroke-width:0.00109487"
       d="m 5.4464652,1.8993742 v 0.6080836 c 0,0 -0.2619099,-0.083874 -0.2932252,0.1327998 -0.00285,0.2306524 0,0.3133611 0,0.3133611 L 5.4464652,2.8755693 V 3.4090989 L 5.1519759,3.4953023 V 4.7394274 L 4.3475822,4.9840586 v -2.199352 c 0,0 -0.017081,-0.7921395 1.098883,-0.8853324" /></g></svg>
